<mxfile host="app.diagrams.net" modified="2023-10-23T07:08:04.466Z" agent="Mozilla/5.0 (Windows NT 10.0; Win64; x64) AppleWebKit/537.36 (KHTML, like Gecko) Chrome/118.0.0.0 Safari/537.36" version="22.0.6" etag="xolS4Ip-6thHaYOH7ZW4" type="github">
  <diagram name="第 1 页" id="y2MbO1FPQ0sJRjv8usI6">
    <mxGraphModel>
      <root>
        <mxCell id="0" />
        <mxCell id="1" parent="0" />
      </root>
    </mxGraphModel>
  </diagram>
</mxfile>
